<svg width="75" height="20" viewBox="0 0 75 20" fill="none" xmlns="http://www.w3.org/2000/svg">
<path fill-rule="evenodd" clip-rule="evenodd" d="M13.3335 2.91667C13.3335 2.07964 12.8628 1.66667 12.0835 1.66667H7.91687C7.13756 1.66667 6.66687 2.07964 6.66687 2.91667C6.66687 3.75371 7.13756 4.16667 7.91687 4.16667L12.0835 4.16667C12.8628 4.16667 13.3335 3.75371 13.3335 2.91667ZM1.66748 6.45834C1.66748 5.37789 2.12306 5.00001 3.12581 5.00001H16.8758C17.8786 5.00001 18.3341 5.37789 18.3341 6.45834C18.3341 7.83352 17.3462 7.91667 16.2502 7.91667V14.3333C16.2502 16.5425 14.4593 18.3333 12.2502 18.3333H7.7502C5.54106 18.3333 3.7502 16.5425 3.7502 14.3333V7.91667C2.65451 7.91667 1.66748 7.83285 1.66748 6.45834ZM10.7502 8.66668C10.7502 8.25247 10.4144 7.91668 10.0002 7.91668C9.58599 7.91668 9.2502 8.25247 9.2502 8.66668L9.2502 14.6667C9.2502 15.0809 9.58599 15.4167 10.0002 15.4167C10.4144 15.4167 10.7502 15.0809 10.7502 14.6667V8.66668ZM6.30404 7.92183C6.71769 7.90015 7.07059 8.21791 7.09227 8.63155L7.40628 14.6233C7.42796 15.037 7.11021 15.3899 6.69656 15.4116C6.28292 15.4332 5.93002 15.1155 5.90834 14.7018L5.59432 8.71006C5.57264 8.29641 5.8904 7.94351 6.30404 7.92183ZM14.4062 8.71005C14.4279 8.2964 14.1101 7.9435 13.6965 7.92182C13.2828 7.90014 12.9299 8.2179 12.9082 8.63154L12.5942 14.6233C12.5725 15.037 12.8903 15.3899 13.3039 15.4115C13.7176 15.4332 14.0705 15.1155 14.0922 14.7018L14.4062 8.71005Z" fill="#ED2C19"/>
<path fill-rule="evenodd" clip-rule="evenodd" d="M13.3335 2.91667C13.3335 2.07964 12.8628 1.66667 12.0835 1.66667H7.91687C7.13756 1.66667 6.66687 2.07964 6.66687 2.91667C6.66687 3.75371 7.13756 4.16667 7.91687 4.16667L12.0835 4.16667C12.8628 4.16667 13.3335 3.75371 13.3335 2.91667ZM1.66748 6.45834C1.66748 5.37789 2.12306 5.00001 3.12581 5.00001H16.8758C17.8786 5.00001 18.3341 5.37789 18.3341 6.45834C18.3341 7.83352 17.3462 7.91667 16.2502 7.91667V14.3333C16.2502 16.5425 14.4593 18.3333 12.2502 18.3333H7.7502C5.54106 18.3333 3.7502 16.5425 3.7502 14.3333V7.91667C2.65451 7.91667 1.66748 7.83285 1.66748 6.45834ZM10.7502 8.66668C10.7502 8.25247 10.4144 7.91668 10.0002 7.91668C9.58599 7.91668 9.2502 8.25247 9.2502 8.66668L9.2502 14.6667C9.2502 15.0809 9.58599 15.4167 10.0002 15.4167C10.4144 15.4167 10.7502 15.0809 10.7502 14.6667V8.66668ZM6.30404 7.92183C6.71769 7.90015 7.07059 8.21791 7.09227 8.63155L7.40628 14.6233C7.42796 15.037 7.11021 15.3899 6.69656 15.4116C6.28292 15.4332 5.93002 15.1155 5.90834 14.7018L5.59432 8.71006C5.57264 8.29641 5.8904 7.94351 6.30404 7.92183ZM14.4062 8.71005C14.4279 8.2964 14.1101 7.9435 13.6965 7.92182C13.2828 7.90014 12.9299 8.2179 12.9082 8.63154L12.5942 14.6233C12.5725 15.037 12.8903 15.3899 13.3039 15.4115C13.7176 15.4332 14.0705 15.1155 14.0922 14.7018L14.4062 8.71005Z" fill="white" fill-opacity="0.2"/>
<path d="M26.5153 15C26.1633 15 25.8913 14.9093 25.6993 14.728C25.518 14.536 25.4273 14.264 25.4273 13.912V4.808C25.4273 4.456 25.518 4.18933 25.6993 4.008C25.8913 3.816 26.1633 3.72 26.5153 3.72H30.3553C31.1446 3.72 31.8166 3.83733 32.3713 4.072C32.926 4.30667 33.3473 4.64267 33.6353 5.08C33.934 5.51733 34.0833 6.04 34.0833 6.648C34.0833 7.33067 33.886 7.90667 33.4913 8.376C33.0966 8.84533 32.558 9.16 31.8753 9.32V9.08C32.6646 9.19733 33.278 9.496 33.7153 9.976C34.1526 10.456 34.3713 11.08 34.3713 11.848C34.3713 12.8507 34.03 13.6293 33.3473 14.184C32.6753 14.728 31.7366 15 30.5313 15H26.5153ZM27.3953 13.448H30.2753C31.0006 13.448 31.534 13.3093 31.8753 13.032C32.2166 12.744 32.3873 12.3173 32.3873 11.752C32.3873 11.176 32.2166 10.7493 31.8753 10.472C31.534 10.1947 31.0006 10.056 30.2753 10.056H27.3953V13.448ZM27.3953 8.504H30.0033C30.7073 8.504 31.23 8.37067 31.5713 8.104C31.9233 7.82667 32.0993 7.42133 32.0993 6.888C32.0993 6.35467 31.9233 5.95467 31.5713 5.688C31.23 5.41067 30.7073 5.272 30.0033 5.272H27.3953V8.504ZM39.0829 15.16C38.4323 15.16 37.8936 15.0427 37.4669 14.808C37.0403 14.5627 36.7203 14.2 36.5069 13.72C36.3043 13.24 36.2029 12.6427 36.2029 11.928V8.056C36.2029 7.71467 36.2883 7.464 36.4589 7.304C36.6296 7.13333 36.8749 7.048 37.1949 7.048C37.5149 7.048 37.7603 7.13333 37.9309 7.304C38.1123 7.464 38.2029 7.71467 38.2029 8.056V11.96C38.2029 12.5147 38.3149 12.9253 38.5389 13.192C38.7629 13.4587 39.1203 13.592 39.6109 13.592C40.1443 13.592 40.5816 13.4107 40.9229 13.048C41.2643 12.6747 41.4349 12.184 41.4349 11.576V8.056C41.4349 7.71467 41.5203 7.464 41.6909 7.304C41.8616 7.13333 42.1069 7.048 42.4269 7.048C42.7469 7.048 42.9923 7.13333 43.1629 7.304C43.3443 7.464 43.4349 7.71467 43.4349 8.056V14.104C43.4349 14.7867 43.1096 15.128 42.4589 15.128C42.1496 15.128 41.9096 15.0427 41.7389 14.872C41.5683 14.6907 41.4829 14.4347 41.4829 14.104V12.888L41.7069 13.368C41.4829 13.944 41.1416 14.3867 40.6829 14.696C40.2349 15.0053 39.7016 15.16 39.0829 15.16ZM49.1006 15.16C48.4072 15.16 47.8259 15.0427 47.3566 14.808C46.8979 14.5733 46.5566 14.232 46.3326 13.784C46.1086 13.3253 45.9966 12.76 45.9966 12.088V8.68H45.1646C44.9086 8.68 44.7112 8.616 44.5726 8.488C44.4339 8.34933 44.3646 8.16267 44.3646 7.928C44.3646 7.68267 44.4339 7.496 44.5726 7.368C44.7112 7.24 44.9086 7.176 45.1646 7.176H45.9966V5.72C45.9966 5.38933 46.0819 5.13867 46.2526 4.968C46.4339 4.79733 46.6846 4.712 47.0046 4.712C47.3246 4.712 47.5699 4.79733 47.7406 4.968C47.9112 5.13867 47.9966 5.38933 47.9966 5.72V7.176H49.6926C49.9486 7.176 50.1459 7.24 50.2846 7.368C50.4232 7.496 50.4926 7.68267 50.4926 7.928C50.4926 8.16267 50.4232 8.34933 50.2846 8.488C50.1459 8.616 49.9486 8.68 49.6926 8.68H47.9966V11.976C47.9966 12.488 48.1086 12.872 48.3326 13.128C48.5566 13.384 48.9192 13.512 49.4206 13.512C49.6019 13.512 49.7619 13.496 49.9006 13.464C50.0392 13.432 50.1619 13.4107 50.2686 13.4C50.3966 13.3893 50.5032 13.432 50.5886 13.528C50.6739 13.6133 50.7166 13.7947 50.7166 14.072C50.7166 14.2853 50.6792 14.4773 50.6046 14.648C50.5406 14.808 50.4179 14.92 50.2366 14.984C50.0979 15.0267 49.9166 15.064 49.6926 15.096C49.4686 15.1387 49.2712 15.16 49.1006 15.16ZM54.7881 15.16C54.0947 15.16 53.5134 15.0427 53.0441 14.808C52.5854 14.5733 52.2441 14.232 52.0201 13.784C51.7961 13.3253 51.6841 12.76 51.6841 12.088V8.68H50.8521C50.5961 8.68 50.3987 8.616 50.2601 8.488C50.1214 8.34933 50.0521 8.16267 50.0521 7.928C50.0521 7.68267 50.1214 7.496 50.2601 7.368C50.3987 7.24 50.5961 7.176 50.8521 7.176H51.6841V5.72C51.6841 5.38933 51.7694 5.13867 51.9401 4.968C52.1214 4.79733 52.3721 4.712 52.6921 4.712C53.0121 4.712 53.2574 4.79733 53.4281 4.968C53.5987 5.13867 53.6841 5.38933 53.6841 5.72V7.176H55.3801C55.6361 7.176 55.8334 7.24 55.9721 7.368C56.1107 7.496 56.1801 7.68267 56.1801 7.928C56.1801 8.16267 56.1107 8.34933 55.9721 8.488C55.8334 8.616 55.6361 8.68 55.3801 8.68H53.6841V11.976C53.6841 12.488 53.7961 12.872 54.0201 13.128C54.2441 13.384 54.6067 13.512 55.1081 13.512C55.2894 13.512 55.4494 13.496 55.5881 13.464C55.7267 13.432 55.8494 13.4107 55.9561 13.4C56.0841 13.3893 56.1907 13.432 56.2761 13.528C56.3614 13.6133 56.4041 13.7947 56.4041 14.072C56.4041 14.2853 56.3667 14.4773 56.2921 14.648C56.2281 14.808 56.1054 14.92 55.9241 14.984C55.7854 15.0267 55.6041 15.064 55.3801 15.096C55.1561 15.1387 54.9587 15.16 54.7881 15.16ZM60.8346 15.16C60.0239 15.16 59.3199 14.9947 58.7226 14.664C58.1252 14.3333 57.6612 13.864 57.3306 13.256C56.9999 12.6373 56.8346 11.912 56.8346 11.08C56.8346 10.4507 56.9252 9.89067 57.1066 9.4C57.2986 8.89867 57.5706 8.472 57.9226 8.12C58.2746 7.75733 58.6959 7.48533 59.1866 7.304C59.6772 7.112 60.2266 7.016 60.8346 7.016C61.6452 7.016 62.3492 7.18133 62.9466 7.512C63.5439 7.84267 64.0079 8.312 64.3386 8.92C64.6692 9.528 64.8346 10.248 64.8346 11.08C64.8346 11.7093 64.7386 12.2747 64.5466 12.776C64.3652 13.2773 64.0986 13.7093 63.7466 14.072C63.3946 14.424 62.9732 14.696 62.4826 14.888C61.9919 15.0693 61.4426 15.16 60.8346 15.16ZM60.8346 13.64C61.2292 13.64 61.5759 13.544 61.8746 13.352C62.1732 13.16 62.4026 12.8773 62.5626 12.504C62.7332 12.12 62.8186 11.6453 62.8186 11.08C62.8186 10.2267 62.6372 9.592 62.2746 9.176C61.9119 8.74933 61.4319 8.536 60.8346 8.536C60.4399 8.536 60.0932 8.632 59.7946 8.824C59.4959 9.00533 59.2612 9.288 59.0906 9.672C58.9306 10.0453 58.8506 10.5147 58.8506 11.08C58.8506 11.9227 59.0319 12.5627 59.3946 13C59.7572 13.4267 60.2372 13.64 60.8346 13.64ZM67.4773 15.128C67.1573 15.128 66.912 15.0427 66.7413 14.872C66.5706 14.6907 66.4853 14.4347 66.4853 14.104V8.056C66.4853 7.72533 66.5706 7.47467 66.7413 7.304C66.912 7.13333 67.152 7.048 67.4613 7.048C67.7706 7.048 68.0106 7.13333 68.1813 7.304C68.352 7.47467 68.4373 7.72533 68.4373 8.056V9.144L68.2613 8.744C68.496 8.17867 68.8586 7.752 69.3493 7.464C69.8506 7.16533 70.416 7.016 71.0453 7.016C71.6746 7.016 72.192 7.13333 72.5973 7.368C73.0026 7.60267 73.3066 7.96 73.5093 8.44C73.712 8.90933 73.8133 9.50667 73.8133 10.232V14.104C73.8133 14.4347 73.728 14.6907 73.5573 14.872C73.3866 15.0427 73.1413 15.128 72.8213 15.128C72.5013 15.128 72.2506 15.0427 72.0693 14.872C71.8986 14.6907 71.8133 14.4347 71.8133 14.104V10.328C71.8133 9.72 71.696 9.27733 71.4613 9C71.2373 8.72267 70.8853 8.584 70.4053 8.584C69.8186 8.584 69.3493 8.77067 68.9973 9.144C68.656 9.50667 68.4853 9.992 68.4853 10.6V14.104C68.4853 14.7867 68.1493 15.128 67.4773 15.128Z" fill="#ED2C19"/>
<path d="M26.5153 15C26.1633 15 25.8913 14.9093 25.6993 14.728C25.518 14.536 25.4273 14.264 25.4273 13.912V4.808C25.4273 4.456 25.518 4.18933 25.6993 4.008C25.8913 3.816 26.1633 3.72 26.5153 3.72H30.3553C31.1446 3.72 31.8166 3.83733 32.3713 4.072C32.926 4.30667 33.3473 4.64267 33.6353 5.08C33.934 5.51733 34.0833 6.04 34.0833 6.648C34.0833 7.33067 33.886 7.90667 33.4913 8.376C33.0966 8.84533 32.558 9.16 31.8753 9.32V9.08C32.6646 9.19733 33.278 9.496 33.7153 9.976C34.1526 10.456 34.3713 11.08 34.3713 11.848C34.3713 12.8507 34.03 13.6293 33.3473 14.184C32.6753 14.728 31.7366 15 30.5313 15H26.5153ZM27.3953 13.448H30.2753C31.0006 13.448 31.534 13.3093 31.8753 13.032C32.2166 12.744 32.3873 12.3173 32.3873 11.752C32.3873 11.176 32.2166 10.7493 31.8753 10.472C31.534 10.1947 31.0006 10.056 30.2753 10.056H27.3953V13.448ZM27.3953 8.504H30.0033C30.7073 8.504 31.23 8.37067 31.5713 8.104C31.9233 7.82667 32.0993 7.42133 32.0993 6.888C32.0993 6.35467 31.9233 5.95467 31.5713 5.688C31.23 5.41067 30.7073 5.272 30.0033 5.272H27.3953V8.504ZM39.0829 15.16C38.4323 15.16 37.8936 15.0427 37.4669 14.808C37.0403 14.5627 36.7203 14.2 36.5069 13.72C36.3043 13.24 36.2029 12.6427 36.2029 11.928V8.056C36.2029 7.71467 36.2883 7.464 36.4589 7.304C36.6296 7.13333 36.8749 7.048 37.1949 7.048C37.5149 7.048 37.7603 7.13333 37.9309 7.304C38.1123 7.464 38.2029 7.71467 38.2029 8.056V11.96C38.2029 12.5147 38.3149 12.9253 38.5389 13.192C38.7629 13.4587 39.1203 13.592 39.6109 13.592C40.1443 13.592 40.5816 13.4107 40.9229 13.048C41.2643 12.6747 41.4349 12.184 41.4349 11.576V8.056C41.4349 7.71467 41.5203 7.464 41.6909 7.304C41.8616 7.13333 42.1069 7.048 42.4269 7.048C42.7469 7.048 42.9923 7.13333 43.1629 7.304C43.3443 7.464 43.4349 7.71467 43.4349 8.056V14.104C43.4349 14.7867 43.1096 15.128 42.4589 15.128C42.1496 15.128 41.9096 15.0427 41.7389 14.872C41.5683 14.6907 41.4829 14.4347 41.4829 14.104V12.888L41.7069 13.368C41.4829 13.944 41.1416 14.3867 40.6829 14.696C40.2349 15.0053 39.7016 15.16 39.0829 15.16ZM49.1006 15.16C48.4072 15.16 47.8259 15.0427 47.3566 14.808C46.8979 14.5733 46.5566 14.232 46.3326 13.784C46.1086 13.3253 45.9966 12.76 45.9966 12.088V8.68H45.1646C44.9086 8.68 44.7112 8.616 44.5726 8.488C44.4339 8.34933 44.3646 8.16267 44.3646 7.928C44.3646 7.68267 44.4339 7.496 44.5726 7.368C44.7112 7.24 44.9086 7.176 45.1646 7.176H45.9966V5.72C45.9966 5.38933 46.0819 5.13867 46.2526 4.968C46.4339 4.79733 46.6846 4.712 47.0046 4.712C47.3246 4.712 47.5699 4.79733 47.7406 4.968C47.9112 5.13867 47.9966 5.38933 47.9966 5.72V7.176H49.6926C49.9486 7.176 50.1459 7.24 50.2846 7.368C50.4232 7.496 50.4926 7.68267 50.4926 7.928C50.4926 8.16267 50.4232 8.34933 50.2846 8.488C50.1459 8.616 49.9486 8.68 49.6926 8.68H47.9966V11.976C47.9966 12.488 48.1086 12.872 48.3326 13.128C48.5566 13.384 48.9192 13.512 49.4206 13.512C49.6019 13.512 49.7619 13.496 49.9006 13.464C50.0392 13.432 50.1619 13.4107 50.2686 13.4C50.3966 13.3893 50.5032 13.432 50.5886 13.528C50.6739 13.6133 50.7166 13.7947 50.7166 14.072C50.7166 14.2853 50.6792 14.4773 50.6046 14.648C50.5406 14.808 50.4179 14.92 50.2366 14.984C50.0979 15.0267 49.9166 15.064 49.6926 15.096C49.4686 15.1387 49.2712 15.16 49.1006 15.16ZM54.7881 15.16C54.0947 15.16 53.5134 15.0427 53.0441 14.808C52.5854 14.5733 52.2441 14.232 52.0201 13.784C51.7961 13.3253 51.6841 12.76 51.6841 12.088V8.68H50.8521C50.5961 8.68 50.3987 8.616 50.2601 8.488C50.1214 8.34933 50.0521 8.16267 50.0521 7.928C50.0521 7.68267 50.1214 7.496 50.2601 7.368C50.3987 7.24 50.5961 7.176 50.8521 7.176H51.6841V5.72C51.6841 5.38933 51.7694 5.13867 51.9401 4.968C52.1214 4.79733 52.3721 4.712 52.6921 4.712C53.0121 4.712 53.2574 4.79733 53.4281 4.968C53.5987 5.13867 53.6841 5.38933 53.6841 5.72V7.176H55.3801C55.6361 7.176 55.8334 7.24 55.9721 7.368C56.1107 7.496 56.1801 7.68267 56.1801 7.928C56.1801 8.16267 56.1107 8.34933 55.9721 8.488C55.8334 8.616 55.6361 8.68 55.3801 8.68H53.6841V11.976C53.6841 12.488 53.7961 12.872 54.0201 13.128C54.2441 13.384 54.6067 13.512 55.1081 13.512C55.2894 13.512 55.4494 13.496 55.5881 13.464C55.7267 13.432 55.8494 13.4107 55.9561 13.4C56.0841 13.3893 56.1907 13.432 56.2761 13.528C56.3614 13.6133 56.4041 13.7947 56.4041 14.072C56.4041 14.2853 56.3667 14.4773 56.2921 14.648C56.2281 14.808 56.1054 14.92 55.9241 14.984C55.7854 15.0267 55.6041 15.064 55.3801 15.096C55.1561 15.1387 54.9587 15.16 54.7881 15.16ZM60.8346 15.16C60.0239 15.16 59.3199 14.9947 58.7226 14.664C58.1252 14.3333 57.6612 13.864 57.3306 13.256C56.9999 12.6373 56.8346 11.912 56.8346 11.08C56.8346 10.4507 56.9252 9.89067 57.1066 9.4C57.2986 8.89867 57.5706 8.472 57.9226 8.12C58.2746 7.75733 58.6959 7.48533 59.1866 7.304C59.6772 7.112 60.2266 7.016 60.8346 7.016C61.6452 7.016 62.3492 7.18133 62.9466 7.512C63.5439 7.84267 64.0079 8.312 64.3386 8.92C64.6692 9.528 64.8346 10.248 64.8346 11.08C64.8346 11.7093 64.7386 12.2747 64.5466 12.776C64.3652 13.2773 64.0986 13.7093 63.7466 14.072C63.3946 14.424 62.9732 14.696 62.4826 14.888C61.9919 15.0693 61.4426 15.16 60.8346 15.16ZM60.8346 13.64C61.2292 13.64 61.5759 13.544 61.8746 13.352C62.1732 13.16 62.4026 12.8773 62.5626 12.504C62.7332 12.12 62.8186 11.6453 62.8186 11.08C62.8186 10.2267 62.6372 9.592 62.2746 9.176C61.9119 8.74933 61.4319 8.536 60.8346 8.536C60.4399 8.536 60.0932 8.632 59.7946 8.824C59.4959 9.00533 59.2612 9.288 59.0906 9.672C58.9306 10.0453 58.8506 10.5147 58.8506 11.08C58.8506 11.9227 59.0319 12.5627 59.3946 13C59.7572 13.4267 60.2372 13.64 60.8346 13.64ZM67.4773 15.128C67.1573 15.128 66.912 15.0427 66.7413 14.872C66.5706 14.6907 66.4853 14.4347 66.4853 14.104V8.056C66.4853 7.72533 66.5706 7.47467 66.7413 7.304C66.912 7.13333 67.152 7.048 67.4613 7.048C67.7706 7.048 68.0106 7.13333 68.1813 7.304C68.352 7.47467 68.4373 7.72533 68.4373 8.056V9.144L68.2613 8.744C68.496 8.17867 68.8586 7.752 69.3493 7.464C69.8506 7.16533 70.416 7.016 71.0453 7.016C71.6746 7.016 72.192 7.13333 72.5973 7.368C73.0026 7.60267 73.3066 7.96 73.5093 8.44C73.712 8.90933 73.8133 9.50667 73.8133 10.232V14.104C73.8133 14.4347 73.728 14.6907 73.5573 14.872C73.3866 15.0427 73.1413 15.128 72.8213 15.128C72.5013 15.128 72.2506 15.0427 72.0693 14.872C71.8986 14.6907 71.8133 14.4347 71.8133 14.104V10.328C71.8133 9.72 71.696 9.27733 71.4613 9C71.2373 8.72267 70.8853 8.584 70.4053 8.584C69.8186 8.584 69.3493 8.77067 68.9973 9.144C68.656 9.50667 68.4853 9.992 68.4853 10.6V14.104C68.4853 14.7867 68.1493 15.128 67.4773 15.128Z" fill="white" fill-opacity="0.2"/>
</svg>
