<svg width="18" height="18" viewBox="0 0 18 18" fill="none" xmlns="http://www.w3.org/2000/svg">
<path fill-rule="evenodd" clip-rule="evenodd" d="M12.3335 1.91669C12.3335 1.07965 11.8628 0.666687 11.0835 0.666687H6.91687C6.13756 0.666687 5.66687 1.07965 5.66687 1.91669C5.66687 2.75372 6.13756 3.16669 6.91687 3.16669L11.0835 3.16669C11.8628 3.16669 12.3335 2.75372 12.3335 1.91669ZM0.66748 5.45835C0.66748 4.3779 1.12306 4.00002 2.12581 4.00002H15.8758C16.8786 4.00002 17.3341 4.3779 17.3341 5.45835C17.3341 6.83353 16.3462 6.91669 15.2502 6.91669V13.3334C15.2502 15.5425 13.4593 17.3334 11.2502 17.3334H6.7502C4.54106 17.3334 2.7502 15.5425 2.7502 13.3334V6.91669C1.65451 6.91669 0.66748 6.83286 0.66748 5.45835ZM9.7502 7.6667C9.7502 7.25248 9.41442 6.9167 9.0002 6.9167C8.58599 6.9167 8.2502 7.25248 8.2502 7.6667L8.2502 13.6667C8.2502 14.0809 8.58599 14.4167 9.0002 14.4167C9.41442 14.4167 9.7502 14.0809 9.7502 13.6667V7.6667ZM5.30404 6.92185C5.71769 6.90017 6.07059 7.21792 6.09227 7.63157L6.40628 13.6233C6.42796 14.037 6.11021 14.3899 5.69656 14.4116C5.28292 14.4332 4.93002 14.1155 4.90834 13.7018L4.59432 7.71007C4.57264 7.29643 4.8904 6.94353 5.30404 6.92185ZM13.4062 7.71006C13.4279 7.29641 13.1101 6.94351 12.6965 6.92184C12.2828 6.90016 11.9299 7.21791 11.9082 7.63156L11.5942 13.6233C11.5725 14.037 11.8903 14.3899 12.3039 14.4116C12.7176 14.4332 13.0705 14.1155 13.0922 13.7018L13.4062 7.71006Z" fill="#ED2C19"/>
</svg>
